#!OML:ASF I:\Actors\actors\Patient Classification 1\Patient 1\Session 1\Subject1.ASF
:FULLY-SPECIFIED
:DEGREES
1181
root 0.308621 17.6821 9.20711 30.8323 -24.1532 -10.5576
lowerback 14.3128 -5.29172 4.39527
upperback -1.91053 -5.99739 2.88098
thorax -10.2567 -3.01777 2.03961
lowerneck -22.317 4.02428 5.6943
upperneck 11.2364 3.31114 2.12042
head 7.11746 2.0456 0.205007
rclavicle 1.35174e-014 1.74931e-014
rhumerus 48.1338 57.8444 -47.1801
rradius 68.1428
rwrist -52.1041
rhand 17.2014 -76.2871
rfingers 7.12502
rthumb 41.9196 -259.096
lclavicle 1.35174e-014 1.74931e-014
lhumerus 29.4045 2.2387 86.6442
lradius 16.8354
lwrist 24.6964
lhand -16.091 25.4504
lfingers 7.12502
lthumb 10.1124 55.1874
rfemur -35.6124 32.5155 11.7075
rtibia 5.79811
rfoot -1.59169 -12.9607
rtoes -2.9509
lfemur 346.724 -59.2689 -356.043
ltibia -5.37631
lfoot -457.182 408.376
ltoes 50.6473
1182
root 0.271109 17.6859 9.18691 31.3894 -24.7303 -11.0155
lowerback 14.5535 -4.99909 3.95581
upperback -1.75694 -5.66826 2.95465
thorax -10.1671 -2.83275 2.29322
lowerneck -22.4481 4.16118 5.67288
upperneck 11.0539 3.48712 2.16914
head 7.07883 2.1299 0.246753
rclavicle 7.79236e-014 9.54166e-015
rhumerus 49.7971 57.409 -46.895
rradius 66.8793
rwrist -51.6114
rhand 17.2821 -76.2303
rfingers 7.12502
rthumb 41.9953 -259.178
lclavicle 7.79236e-014 9.54166e-015
lhumerus 31.3757 5.77805 88.6495
lradius 15.4197
lwrist 20.7686
lhand -15.3566 24.9521
lfingers 7.12502
lthumb 10.8208 54.6534
rfemur -36.2705 33.0748 11.7688
rtibia 5.88916
rfoot -1.3962 -12.727
rtoes -3.19045
lfemur 347.532 -58.499 -356.165
ltibia -6.06941
lfoot -457.206 407.272
ltoes 51.3844
1183
root 0.270276 17.6846 9.17511 31.7166 -24.3788 -10.7977
lowerback 14.6674 -5.14933 4.23967
upperback -1.66641 -5.81667 2.89097
thorax -10.17 -2.91908 2.10884
lowerneck -22.1843 4.30842 5.6658
upperneck 10.4168 3.72059 2.18755
head 6.82845 2.22819 0.269183
rclavicle 9.93923e-014 -4.6118e-014
rhumerus 51.161 56.8779 -46.8122
rradius 65.6733
rwrist -51.0083
rhand 17.4621 -76.1017
rfingers 7.12502
rthumb 42.1639 -259.363
lclavicle 9.93923e-014 -4.6118e-014
lhumerus 33.5474 9.40139 91.0797
lradius 14.0642
lwrist 16.5119
lhand -15.095 24.5431
lfingers 7.12502
lthumb 11.0731 54.231
rfemur -36.8534 33.0084 11.1648
rtibia 5.72288
rfoot -1.23434 -13.2278
rtoes -3.08244
lfemur 346.003 -58.625 -354.898
ltibia -5.85264
lfoot -457.116 407.323
ltoes 51.3482
1184
root 0.263113 17.6845 9.16134 32.0123 -24.2481 -10.637
lowerback 14.806 -5.20805 4.23116
upperback -1.5559 -5.89223 2.85936
thorax -10.1302 -2.95381 2.10283
lowerneck -21.9428 4.34134 5.33279
upperneck 9.76063 3.84279 2.53765
head 6.56267 2.29004 0.435881
rclavicle 3.73715e-014 0
rhumerus 52.2775 56.3759 -46.9301
rradius 64.513
rwrist -50.4103
rhand 17.7551 -76.0087
rfingers 7.12502
rthumb 42.4383 -259.55
lclavicle 3.73715e-014 0
lhumerus 35.7276 12.8506 93.6578
lradius 12.9582
lwrist 12.073
lhand -15.1086 24.2998
lfingers 7.12502
lthumb 11.06 53.9884
rfemur -37.3944 33.0116 10.6651
rtibia 5.68613
rfoot -1.15632 -13.5093
rtoes -3.01513
lfemur 344.849 -58.574 -353.972
ltibia -5.68657
lfoot -457.084 407.283
ltoes 51.3532
1185
root 0.251758 17.6845 9.14629 32.2826 -24.2687 -10.5864
lowerback 14.9886 -5.20592 4.08489
upperback -1.44661 -5.90673 2.85677
thorax -10.0982 -2.95108 2.19344
lowerneck -21.7411 4.58857 5.89272
upperneck 9.24222 4.1519 1.80812
head 6.39001 2.38323 0.136824
rclavicle 2.06736e-014 -4.29375e-014
rhumerus 53.3218 55.935 -47.0072
rradius 63.4633
rwrist -50.0535
rhand 17.9488 -75.9828
rfingers 7.12502
rthumb 42.6197 -259.638
lclavicle 2.06736e-014 -4.29375e-014
lhumerus 37.9239 16.2133 96.4421
lradius 12.0347
lwrist 7.41353
lhand -14.977 24.0317
lfingers 7.12502
lthumb 11.187 53.7134
rfemur -37.8542 33.0247 10.3689
rtibia 5.7168
rfoot -1.14186 -13.5692
rtoes -3.10391
lfemur 344.285 -58.413 -353.431
ltibia -5.73365
lfoot -457.076 406.764
ltoes 51.6709
1186
root 0.241807 17.6837 9.1331 32.5251 -24.3009 -10.5758
lowerback 15.1942 -5.20819 4.02807
upperback -1.36052 -5.91014 2.83898
thorax -10.1164 -2.94799 2.22038
lowerneck -21.7563 4.55316 5.72951
upperneck 8.83809 4.14407 1.90621
head 6.25439 2.37312 0.187574
rclavicle 5.32743e-014 -7.63333e-014
rhumerus 54.1753 55.5393 -47.1255
rradius 62.5409
rwrist -49.752
rhand 17.9146 -75.9145
rfingers 7.12502
rthumb 42.5877 -259.695
lclavicle 5.32743e-014 -7.63333e-014
lhumerus 40.2516 19.4253 99.4124
lradius 11.1926
lwrist 2.96987
lhand -14.5989 23.7561
lfingers 7.12502
lthumb 11.5516 53.4177
rfemur -38.1961 32.9271 10.2275
rtibia 5.6944
rfoot -1.13749 -13.4841
rtoes -3.08134
lfemur 344.011 -58.2713 -353.075
ltibia -5.88914
lfoot -457.103 405.903
ltoes 52.2485
1187
root 0.231278 17.6824 9.12003 32.7884 -24.3324 -10.6122
lowerback 15.358 -5.19189 3.98643
upperback -1.26376 -5.8877 2.83977
thorax -10.0982 -2.93348 2.24757
lowerneck -21.4853 4.68372 5.89031
upperneck 8.2291 4.33625 1.70511
head 6.02431 2.44044 0.105613
rclavicle 3.02153e-014 3.97569e-014
rhumerus 54.7712 55.1565 -47.37
rradius 61.764
rwrist -49.1767
rhand 17.7732 -75.6773
rfingers 7.12502
rthumb 42.4553 -259.887
lclavicle 3.02153e-014 3.97569e-014
lhumerus 42.6072 22.1707 102.267
lradius 10.3356
lwrist -0.87954
lhand -14.2177 22.9044
lfingers 7.12502
lthumb 11.9192 52.5451
rfemur -38.5613 32.9373 10.0636
rtibia 5.6302
rfoot -1.08715 -13.5124
rtoes -2.86193
lfemur 343.695 -58.1073 -352.668
ltibia -6.00046
lfoot -457.108 405.445
ltoes 52.576
1188
root 0.220184 17.6807 9.10498 33.0761 -24.337 -10.6727
lowerback 15.4809 -5.1666 3.93137
upperback -1.1753 -5.85765 2.8499
thorax -10.0632 -2.91493 2.28675
lowerneck -21.8582 4.65806 5.84012
upperneck 8.16043 4.27942 1.75385
head 6.05621 2.41418 0.129448
rclavicle -3.65764e-014 3.81667e-014
rhumerus 55.2528 54.7737 -47.5962
rradius 61.1025
rwrist -48.5957
rhand 17.7635 -75.5092
rfingers 7.12502
rthumb 42.4462 -260.052
lclavicle -3.65764e-014 3.81667e-014
lhumerus 43.8441 22.1012 102.44
lradius 9.43755
lwrist -1.09059
lhand -14.4242 21.7037
lfingers 7.12502
lthumb 11.7201 51.3558
rfemur -39.0117 33.1111 9.79556
rtibia 5.57299
rfoot -1.00225 -13.7447
rtoes -2.93908
lfemur 343.294 -57.9351 -352.161
ltibia -6.10923
lfoot -457.114 405.328
ltoes 52.6726
1189
root 0.211734 17.6784 9.09117 33.3578 -24.2661 -10.7403
lowerback 15.5659 -5.15977 3.97204
upperback -1.10515 -5.83672 2.85344
thorax -10.0379 -2.90619 2.2662
lowerneck -21.6642 4.76208 6.08322
upperneck 7.6851 4.40767 1.51294
head 5.88428 2.45295 0.0181672
rclavicle -2.70347e-014 4.6118e-014
rhumerus 55.6435 54.3674 -47.7597
rradius 60.4987
rwrist -48.3757
rhand 17.8624 -75.6428
rfingers 7.12502
rthumb 42.5388 -259.95
lclavicle -2.70347e-014 4.6118e-014
lhumerus 44.8524 22.0166 102.573
lradius 9.03098
lwrist -1.14096
lhand -14.2998 22.0382
lfingers 7.12502
lthumb 11.84 51.6835
rfemur -39.4397 33.3081 9.51919
rtibia 5.49994
rfoot -0.944987 -14.0834
rtoes -3.19372
lfemur 342.893 -57.8199 -351.602
ltibia -6.24238
lfoot -457.151 405.132
ltoes 52.8019
1190
root 0.204712 17.6776 9.07862 33.5976 -24.1942 -10.7999
lowerback 15.6368 -5.13943 4.03866
upperback -1.03348 -5.79472 2.84809
thorax -10.0064 -2.8891 2.21505
lowerneck -21.5392 4.72254 5.7759
upperneck 7.20136 4.42081 1.80895
head 5.69543 2.46313 0.152522
rclavicle 1.03368e-014 4.77083e-014
rhumerus 55.9155 53.9389 -47.8966
rradius 59.9276
rwrist -48.3815
rhand 17.8796 -75.812
rfingers 7.12502
rthumb 42.5549 -259.787
lclavicle 1.03368e-014 4.77083e-014
lhumerus 45.6791 21.8971 102.716
lradius 9.0848
lwrist -1.12901
lhand -13.9742 23.9539
lfingers 7.12502
lthumb 12.1539 53.5809
rfemur -39.779 33.4599 9.29158
rtibia 5.39765
rfoot -0.859942 -14.3699
rtoes -3.31381
lfemur 342.519 -57.7227 -351.089
ltibia -6.32897
lfoot -457.128 404.811
ltoes 53.0019
1191
root 0.199155 17.6778 9.06735 33.77 -24.1323 -10.8335
lowerback 15.7059 -5.11651 4.07409
upperback -0.937376 -5.75501 2.85446
thorax -9.94212 -2.87126 2.19205
lowerneck -21.7821 4.6936 5.71795
upperneck 7.15129 4.37512 1.84129
head 5.71344 2.441 0.171175
rclavicle 4.05521e-014 4.77083e-015
rhumerus 57.7318 53.4648 -46.2065
rradius 59.4519
rwrist -50.0435
rhand 17.1718 -76.6701
rfingers 7.12502
rthumb 41.8918 -258.704
lclavicle 4.05521e-014 4.77083e-015
lhumerus 46.4832 21.7789 102.919
lradius 8.91923
lwrist -1.39872
lhand -14.0174 24.8636
lfingers 7.12502
lthumb 12.1123 54.493
rfemur -39.956 33.3949 9.2569
rtibia 5.29465
rfoot -0.688662 -14.3486
rtoes -3.88055
lfemur 342.162 -57.655 -350.657
ltibia -6.33956
lfoot -457.086 404.588
ltoes 53.1576
1192
root 0.194366 17.678 9.05768 33.9099 -24.068 -10.8637
lowerback 15.8248 -5.10767 4.07684
upperback -0.890716 -5.73314 2.88572
thorax -9.95502 -2.85904 2.22712
lowerneck -21.9796 4.75821 5.98955
upperneck 7.20538 4.41661 1.47018
head 5.77521 2.44025 0.0196752
rclavicle -5.1684e-014 2.06736e-014
rhumerus 56.9537 53.4 -47.0249
rradius 59.0348
rwrist -47.8493
rhand 17.2074 -75.5157
rfingers 7.12502
rthumb 41.9253 -259.869
lclavicle -5.1684e-014 2.06736e-014
lhumerus 47.0893 21.7641 103.088
lradius 8.55689
lwrist -1.36173
lhand -14.701 24.135
lfingers 7.12502
lthumb 11.4531 53.8022
rfemur -40.1003 33.349 9.23739
rtibia 5.21168
rfoot -0.544074 -14.3341
rtoes -4.47724
lfemur 341.87 -57.6038 -350.27
ltibia -6.37487
lfoot -457.095 404.465
ltoes 53.2579
1193
root 0.188931 17.6787 9.04847 34.0088 -24.0737 -10.863
lowerback 15.9186 -5.06781 4.00396
upperback -0.85167 -5.69074 2.86513
thorax -9.95958 -2.83482 2.24063
lowerneck -21.9532 4.86308 6.30893
upperneck 7.12474 4.51792 1.10711
head 5.76191 2.46735 -0.13642
rclavicle 6.44062e-014 -5.56597e-014
rhumerus 58.1407 53.3061 -45.6668
rradius 58.6666
rwrist -48.1779
rhand 16.0587 -75.5786
rfingers 7.12502
rthumb 40.8473 -259.457
lclavicle 6.44062e-014 -5.56597e-014
lhumerus 47.5213 21.7085 103.179
lradius 8.0446
lwrist -0.519718
lhand -16.1397 22.016
lfingers 7.12502
lthumb 10.0654 51.7553
rfemur -40.3035 33.5208 9.01534
rtibia 5.14919
rfoot -0.512516 -14.5511
rtoes -4.49022
lfemur 341.775 -57.5439 -350.084
ltibia -6.48901
lfoot -457.108 404.191
ltoes 53.4239
